<svg width="45" height="41" viewBox="0 0 45 41" fill="none" xmlns="http://www.w3.org/2000/svg">
<path d="M9.375 21.7659C9.375 19.503 9.375 18.3715 9.88961 17.377C10.4042 16.3824 11.3707 15.646 13.3036 14.1733L15.1786 12.7448C18.6723 10.0829 20.4192 8.75195 22.5 8.75195C24.5808 8.75195 26.3277 10.0829 29.8214 12.7448L31.6964 14.1733C33.6293 15.646 34.5958 16.3824 35.1104 17.377C35.625 18.3715 35.625 19.503 35.625 21.7659V28.8332C35.625 31.9759 35.625 33.5473 34.5266 34.5236C33.4283 35.4999 31.6605 35.4999 28.125 35.4999H16.875C13.3395 35.4999 11.5717 35.4999 10.4733 34.5236C9.375 33.5473 9.375 31.9759 9.375 28.8332V21.7659Z" stroke="#FFA726" stroke-width="3"/>
<path d="M27.1875 35.5V26.5C27.1875 25.9477 26.7398 25.5 26.1875 25.5H18.8125C18.2602 25.5 17.8125 25.9477 17.8125 26.5V35.5" stroke="#FFA726" stroke-width="3" stroke-linecap="round" stroke-linejoin="round"/>
</svg>
