<svg width="45" height="41" viewBox="0 0 45 41" fill="none" xmlns="http://www.w3.org/2000/svg">
<path d="M9.375 21.766C9.375 19.5031 9.375 18.3716 9.88961 17.3771C10.4042 16.3825 11.3707 15.6462 13.3036 14.1735L15.1786 12.7449C18.6723 10.083 20.4192 8.75208 22.5 8.75208C24.5808 8.75208 26.3277 10.083 29.8214 12.7449L31.6964 14.1735C33.6293 15.6462 34.5958 16.3825 35.1104 17.3771C35.625 18.3716 35.625 19.5031 35.625 21.766V28.8334C35.625 31.9761 35.625 33.5474 34.5266 34.5237C33.4283 35.5 31.6605 35.5 28.125 35.5H16.875C13.3395 35.5 11.5717 35.5 10.4733 34.5237C9.375 33.5474 9.375 31.9761 9.375 28.8334V21.766Z" stroke="#323335" stroke-width="2"/>
<path d="M27.1875 35.5V26.5C27.1875 25.9477 26.7398 25.5 26.1875 25.5H18.8125C18.2602 25.5 17.8125 25.9477 17.8125 26.5V35.5" stroke="#323335" stroke-width="2" stroke-linecap="round" stroke-linejoin="round"/>
</svg>
