<svg width="40" height="40" viewBox="0 0 40 40" fill="none" xmlns="http://www.w3.org/2000/svg">
<path d="M6.6665 6.66663H10.105C10.8549 6.66663 11.2299 6.66663 11.5011 6.87842C11.7724 7.09022 11.8633 7.45399 12.0452 8.18155L12.5757 10.3034C12.9395 11.7586 13.1214 12.4861 13.6639 12.9097C14.2064 13.3333 14.9564 13.3333 16.4563 13.3333H16.6665" stroke="#FFA726" stroke-width="3" stroke-linecap="round"/>
<path d="M30 28.3334H12.5848C11.4981 28.3334 10.9548 28.3334 10.6585 28.018C10.5993 27.955 10.5485 27.8845 10.5074 27.8083C10.3019 27.4276 10.4737 26.9121 10.8174 25.8812V25.8812C11.1961 24.7449 11.3855 24.1768 11.8044 23.8167C11.891 23.7423 11.9837 23.6755 12.0816 23.6169C12.5558 23.3334 13.1546 23.3334 14.3523 23.3334H23.3333" stroke="#FFA726" stroke-width="3" stroke-linecap="round" stroke-linejoin="round"/>
<path d="M27.0971 23.3334H15.0274C14.0497 23.3334 13.2154 22.6265 13.0546 21.6622L11.9576 15.08C11.8052 14.1657 12.5103 13.3334 13.4372 13.3334H31.7151C32.4585 13.3334 32.942 14.1157 32.6096 14.7806L28.886 22.2278C28.5472 22.9054 27.8546 23.3334 27.0971 23.3334Z" stroke="#FFA726" stroke-width="3" stroke-linecap="round"/>
<circle cx="28.3332" cy="33.3333" r="1.66667" fill="#FFA726"/>
<circle cx="15.0002" cy="33.3333" r="1.66667" fill="#FFA726"/>
</svg>
