<svg width="40" height="41" viewBox="0 0 40 41" fill="none" xmlns="http://www.w3.org/2000/svg">
<path d="M6.6665 7.16675H10.105C10.8549 7.16675 11.2299 7.16675 11.5011 7.37854C11.7724 7.59034 11.8633 7.95412 12.0452 8.68168L12.5757 10.8036C12.9395 12.2587 13.1214 12.9862 13.6639 13.4098C14.2064 13.8334 14.9564 13.8334 16.4563 13.8334H16.6665" stroke="#222222" stroke-width="2" stroke-linecap="round"/>
<path d="M30 28.8333H12.5848C11.4981 28.8333 10.9548 28.8333 10.6585 28.5179C10.5993 28.4548 10.5485 28.3844 10.5074 28.3082C10.3019 27.9275 10.4737 27.412 10.8174 26.3811V26.3811C11.1961 25.2448 11.3855 24.6767 11.8044 24.3166C11.891 24.2422 11.9837 24.1754 12.0816 24.1168C12.5558 23.8333 13.1546 23.8333 14.3523 23.8333H23.3333" stroke="#222222" stroke-width="2" stroke-linecap="round" stroke-linejoin="round"/>
<path d="M27.0971 23.8333H15.0274C14.0497 23.8333 13.2154 23.1264 13.0546 22.162L11.9576 15.5799C11.8052 14.6656 12.5103 13.8333 13.4372 13.8333H31.7151C32.4585 13.8333 32.942 14.6156 32.6096 15.2805L28.886 22.7277C28.5472 23.4052 27.8546 23.8333 27.0971 23.8333Z" stroke="#222222" stroke-width="2" stroke-linecap="round"/>
<circle cx="28.3332" cy="33.8334" r="1.66667" fill="#222222"/>
<circle cx="15.0002" cy="33.8334" r="1.66667" fill="#222222"/>
</svg>
