<svg width="40" height="41" viewBox="0 0 40 41" fill="none" xmlns="http://www.w3.org/2000/svg">
<path d="M26 10.5C27.5339 10.5 29.0472 10.8529 30.4229 11.5313C31.7986 12.2097 32.9998 13.1955 33.9335 14.4124C34.8673 15.6293 35.5086 17.0447 35.8079 18.5491C36.1071 20.0535 36.0563 21.6066 35.6593 23.0882C35.2623 24.5698 34.5298 25.9402 33.5184 27.0935C32.507 28.2467 31.2439 29.1518 29.8268 29.7388C28.4097 30.3258 26.8766 30.5789 25.346 30.4786C23.8154 30.3783 22.3284 29.9272 21 29.1603" stroke="#33363F" stroke-width="2" stroke-linecap="round"/>
<path d="M12.5 33.5V8.5" stroke="#33363F" stroke-width="2"/>
<path d="M20 8.5V15.4643C20 17.5354 18.3211 19.2143 16.25 19.2143V19.2143C14.1789 19.2143 12.5 17.5354 12.5 15.4643V8.5" stroke="#33363F" stroke-width="2"/>
<path d="M5 8.5V15.4643C5 17.5354 6.67893 19.2143 8.75 19.2143V19.2143C10.8211 19.2143 12.5 17.5354 12.5 15.4643V8.5" stroke="#33363F" stroke-width="2"/>
</svg>
