<svg width="28" height="28" viewBox="0 0 28 28" fill="none" xmlns="http://www.w3.org/2000/svg">
<path d="M6.13128 6.95116L6.5252 7.8703L6.13128 6.95116C5.31204 7.30226 4.82401 8.1531 4.93456 9.03752L5.71421 15.2747C5.93436 17.0359 6.81534 18.6478 8.17887 19.784L12.7198 23.5681C13.4615 24.1862 14.5388 24.1862 15.2805 23.5681L19.8215 19.784C21.185 18.6478 22.066 17.0359 22.2861 15.2747L23.0658 9.03752C23.1763 8.1531 22.6883 7.30226 21.869 6.95116L14.788 3.91643C14.2849 3.70081 13.7154 3.70081 13.2123 3.91643L6.13128 6.95116Z" stroke="#858586" stroke-width="2" stroke-linecap="round"/>
<path d="M10.4998 14L13.5686 17.0687C13.7917 17.2918 14.1631 17.2551 14.3382 16.9925L18.6665 10.5" stroke="#858586" stroke-width="2" stroke-linecap="round"/>
</svg>
