<svg width="334" height="57" viewBox="0 0 334 57" fill="none" xmlns="http://www.w3.org/2000/svg">
<g filter="url(#filter0_d_537_2812)">
<rect x="4" width="326" height="49" rx="8" fill="#FEE500"/>
<path d="M83 24.5C83 17.8726 88.3726 12.5 95 12.5C101.627 12.5 107 17.8726 107 24.5C107 31.1274 101.627 36.5 95 36.5C88.3726 36.5 83 31.1274 83 24.5Z" fill="#FFE812"/>
<path d="M95 18C90.5817 18 87 20.8241 87 24.3077C87 26.5599 88.4974 28.5361 90.7499 29.6521C90.6273 30.0747 89.9624 32.3709 89.9359 32.5513C89.9359 32.5513 89.92 32.6868 90.0078 32.7385C90.0956 32.7901 90.1988 32.75 90.1988 32.75C90.4504 32.7149 93.1175 30.8415 93.5791 30.5162C94.0403 30.5815 94.5151 30.6154 95 30.6154C99.4183 30.6154 103 27.7914 103 24.3077C103 20.8241 99.4183 18 95 18Z" fill="#381F1F"/>
<path fill-rule="evenodd" clip-rule="evenodd" d="M90.577 26.5096C90.3224 26.5096 90.1154 26.3119 90.1154 26.0688V23.3269H89.3953C89.1455 23.3269 88.9424 23.1241 88.9424 22.875C88.9424 22.6258 89.1456 22.4231 89.3953 22.4231H91.7587C92.0084 22.4231 92.2116 22.6258 92.2116 22.875C92.2116 23.1241 92.0084 23.3269 91.7587 23.3269H91.0385V26.0688C91.0385 26.3119 90.8315 26.5096 90.577 26.5096ZM94.624 26.5036C94.4316 26.5036 94.2844 26.4255 94.24 26.2998L94.0114 25.7015L92.604 25.7014L92.3754 26.3001C92.3311 26.4255 92.184 26.5036 91.9915 26.5036C91.8903 26.5037 91.7902 26.482 91.6981 26.4399C91.5709 26.3812 91.4486 26.2198 91.5887 25.7845L92.6927 22.8787C92.7705 22.6577 93.0067 22.43 93.3074 22.4231C93.6088 22.4299 93.845 22.6577 93.923 22.8791L95.0265 25.7837C95.167 26.22 95.0447 26.3815 94.9174 26.44C94.8253 26.482 94.7253 26.5037 94.624 26.5036ZM93.3077 23.5743L93.7687 24.8839H92.8467L93.3077 23.5743ZM95.7693 26.4423C95.5253 26.4423 95.327 26.2525 95.327 26.0192V22.8846C95.327 22.6301 95.5383 22.4231 95.7981 22.4231C96.0579 22.4231 96.2693 22.6301 96.2693 22.8846V25.5961H97.25C97.494 25.5961 97.6924 25.786 97.6924 26.0192C97.6924 26.2525 97.494 26.4423 97.25 26.4423H95.7693ZM97.8719 26.0421C97.8719 26.2966 98.0789 26.5036 98.3334 26.5036C98.4558 26.5034 98.5732 26.4547 98.6597 26.3682C98.7463 26.2816 98.795 26.1643 98.7951 26.0418V25.0348L98.9553 24.8747L100.038 26.3088C100.081 26.3661 100.136 26.4125 100.2 26.4444C100.264 26.4762 100.335 26.4926 100.406 26.4923C100.507 26.4925 100.604 26.4598 100.684 26.3991C100.732 26.3628 100.773 26.3172 100.804 26.2649C100.835 26.2127 100.855 26.1548 100.863 26.0948C100.872 26.0347 100.868 25.9736 100.853 25.9149C100.838 25.8562 100.811 25.8011 100.774 25.7528L99.6383 24.2478L100.69 23.1961C100.762 23.1238 100.799 23.024 100.792 22.9151C100.785 22.8072 100.737 22.7033 100.656 22.6225C100.57 22.5359 100.454 22.4862 100.339 22.4862C100.24 22.4862 100.149 22.5227 100.083 22.5889L98.795 23.8766V22.8846C98.795 22.6301 98.588 22.4231 98.3334 22.4231C98.0789 22.4231 97.8719 22.6301 97.8719 22.8846V26.0421Z" fill="#FFE812"/>
<path d="M125.944 19.788H127.24C127.24 23.964 125.832 27.804 120.648 30.38L119.928 29.356C124.504 27.1 125.944 23.868 125.944 19.932V19.788ZM120.712 19.788H126.728V20.86H120.712V19.788ZM125.736 23.372V24.396L120.2 24.94L119.992 23.756L125.736 23.372ZM129.576 18.268H130.92V32.748H129.576V18.268ZM130.552 24.14H133.224V25.244H130.552V24.14ZM140.163 19.788H141.459C141.459 23.964 140.051 27.804 134.867 30.38L134.147 29.356C138.723 27.1 140.163 23.868 140.163 19.932V19.788ZM134.931 19.788H140.947V20.86H134.931V19.788ZM139.955 23.372V24.396L134.419 24.94L134.211 23.756L139.955 23.372ZM143.795 18.268H145.139V32.748H143.795V18.268ZM144.771 24.14H147.443V25.244H144.771V24.14ZM154.094 26.46H155.422V30.06H154.094V26.46ZM154.766 19.228C157.822 19.228 160.014 20.716 160.014 23.02C160.014 25.324 157.822 26.812 154.766 26.812C151.71 26.812 149.502 25.324 149.502 23.02C149.502 20.716 151.71 19.228 154.766 19.228ZM154.766 20.284C152.462 20.284 150.782 21.372 150.782 23.02C150.782 24.668 152.462 25.756 154.766 25.756C157.054 25.756 158.734 24.668 158.734 23.02C158.734 21.372 157.054 20.284 154.766 20.284ZM148.238 29.804H161.342V30.908H148.238V29.804ZM162.44 26.076H175.512V27.164H162.44V26.076ZM168.312 24.124H169.624V26.444H168.312V24.124ZM163.896 28.428H173.832V32.748H172.504V29.516H163.896V28.428ZM164.168 23.532H173.976V24.572H164.168V23.532ZM164.168 18.668H173.912V19.708H165.48V24.012H164.168V18.668ZM165.096 21.068H173.528V22.076H165.096V21.068ZM183.203 19.196C186.211 19.196 188.451 20.796 188.451 23.196C188.451 25.612 186.211 27.196 183.203 27.196C180.195 27.196 177.939 25.612 177.939 23.196C177.939 20.796 180.195 19.196 183.203 19.196ZM183.203 20.284C180.915 20.284 179.219 21.452 179.219 23.196C179.219 24.924 180.915 26.108 183.203 26.108C185.491 26.108 187.187 24.924 187.187 23.196C187.187 21.452 185.491 20.284 183.203 20.284ZM176.675 29.724H189.779V30.844H176.675V29.724ZM190.894 29.868H203.998V30.972H190.894V29.868ZM196.75 26.764H198.078V30.332H196.75V26.764ZM192.478 19.356H202.382V23.74H193.838V26.636H192.526V22.668H201.07V20.428H192.478V19.356ZM192.526 26.076H202.718V27.164H192.526V26.076ZM208.191 29.868H221.295V30.972H208.191V29.868ZM214.047 26.764H215.375V30.332H214.047V26.764ZM209.775 19.356H219.679V23.74H211.135V26.636H209.823V22.668H218.367V20.428H209.775V19.356ZM209.823 26.076H220.015V27.164H209.823V26.076ZM223.817 19.82H233.129V20.892H223.817V19.82ZM222.409 29.532H235.481V30.636H222.409V29.532ZM232.425 19.82H233.721V21.26C233.721 23.116 233.721 25.18 233.177 28.3L231.849 28.172C232.425 25.212 232.425 23.052 232.425 21.26V19.82ZM247.14 18.3H248.484V28.86H247.14V18.3ZM239.188 31.34H248.916V32.428H239.188V31.34ZM239.188 27.772H240.5V31.708H239.188V27.772ZM240.724 19.292C242.884 19.292 244.484 20.764 244.484 22.86C244.484 24.94 242.884 26.428 240.724 26.428C238.564 26.428 236.948 24.94 236.948 22.86C236.948 20.764 238.564 19.292 240.724 19.292ZM240.724 20.444C239.316 20.444 238.244 21.436 238.244 22.86C238.244 24.268 239.316 25.26 240.724 25.26C242.132 25.26 243.204 24.268 243.204 22.86C243.204 21.436 242.132 20.444 240.724 20.444Z" fill="#323335"/>
</g>
<defs>
<filter id="filter0_d_537_2812" x="0" y="0" width="334" height="57" filterUnits="userSpaceOnUse" color-interpolation-filters="sRGB">
<feFlood flood-opacity="0" result="BackgroundImageFix"/>
<feColorMatrix in="SourceAlpha" type="matrix" values="0 0 0 0 0 0 0 0 0 0 0 0 0 0 0 0 0 0 127 0" result="hardAlpha"/>
<feOffset dy="4"/>
<feGaussianBlur stdDeviation="2"/>
<feComposite in2="hardAlpha" operator="out"/>
<feColorMatrix type="matrix" values="0 0 0 0 0 0 0 0 0 0 0 0 0 0 0 0 0 0 0.25 0"/>
<feBlend mode="normal" in2="BackgroundImageFix" result="effect1_dropShadow_537_2812"/>
<feBlend mode="normal" in="SourceGraphic" in2="effect1_dropShadow_537_2812" result="shape"/>
</filter>
</defs>
</svg>
