<svg width="272" height="162" viewBox="0 0 272 162" fill="none" xmlns="http://www.w3.org/2000/svg">
<path d="M65.0206 8.04H67.2006V9.3C67.2006 12.76 65.5406 15.92 61.9606 17.06L60.6206 14.96C63.7206 13.98 65.0206 11.6 65.0206 9.3V8.04ZM65.5406 8.04H67.7206V9.28C67.7206 11.44 68.9806 13.62 71.9806 14.56L70.7006 16.66C67.1806 15.58 65.5406 12.56 65.5406 9.28V8.04ZM61.3206 7.34H71.3406V9.44H61.3206V7.34ZM72.8606 6.26H75.5206V16.98H72.8606V6.26ZM74.7806 10.44H77.9806V12.6H74.7806V10.44ZM63.4806 17.72H75.5206V24.58H63.4806V17.72ZM72.9206 19.8H66.1006V22.48H72.9206V19.8ZM83.8591 7.68H86.0191V10.38C86.0191 15.14 84.3791 19.44 80.6991 21.14L79.1191 18.94C82.3391 17.54 83.8591 13.98 83.8591 10.38V7.68ZM84.3791 7.68H86.5391V10.38C86.5391 13.8 87.9991 17.2 91.1591 18.56L89.5991 20.7C86.0191 19.06 84.3791 14.94 84.3791 10.38V7.68ZM92.0391 6.24H94.7191V24.82H92.0391V6.24ZM115.029 6.26H117.709V24.78H115.029V6.26ZM109.569 8.18H112.209C112.209 13.84 110.289 18.48 103.709 21.66L102.329 19.54C107.649 16.98 109.569 13.62 109.569 8.66V8.18ZM103.309 8.18H110.829V10.28H103.309V8.18ZM132.507 6.24H135.187V24.82H132.507V6.24ZM134.587 13.1H137.867V15.28H134.587V13.1ZM121.387 18.16H122.947C126.067 18.16 128.527 18.06 131.247 17.58L131.507 19.78C128.707 20.28 126.167 20.36 122.947 20.36H121.387V18.16ZM121.387 7.96H130.027V10.1H124.027V19.22H121.387V7.96ZM151.906 6.24H154.566V24.82H151.906V6.24ZM148.866 10.18H152.346V12.32H148.866V10.18ZM139.706 18.52H141.166C143.906 18.52 146.186 18.46 148.846 18.06L149.066 20.22C146.346 20.64 143.986 20.7 141.166 20.7H139.706V18.52ZM139.666 7.8H147.946V14.98H142.346V19H139.706V12.88H145.326V9.92H139.666V7.8ZM148.826 15.22H152.306V17.36H148.826V15.22ZM164.324 8.32H166.624V8.86C166.624 12.12 163.964 14.78 159.264 15.42L158.284 13.34C162.364 12.84 164.324 10.76 164.324 8.86V8.32ZM165.084 8.32H167.384V8.86C167.384 10.76 169.344 12.84 173.424 13.34L172.464 15.42C167.744 14.78 165.084 12.12 165.084 8.86V8.32ZM164.464 18H167.104V24.8H164.464V18ZM157.484 16.48H174.224V18.6H157.484V16.48ZM158.964 7.2H172.704V9.3H158.964V7.2ZM183.163 12.48H186.223V14.64H183.163V12.48ZM179.203 7.86H181.243V10.98C181.243 15.18 180.083 19.28 177.123 21.1L175.523 19.1C178.243 17.42 179.203 14.12 179.203 10.98V7.86ZM179.783 7.86H181.783V10.86C181.783 13.88 182.563 16.96 185.083 18.6L183.643 20.68C180.703 18.86 179.783 14.86 179.783 10.86V7.86ZM189.243 6.26H191.783V24.78H189.243V6.26ZM185.483 6.54H187.963V23.94H185.483V6.54ZM197.961 15.66H200.601V20.86H197.961V15.66ZM204.681 15.66H207.341V20.86H204.681V15.66ZM194.281 20.48H211.041V22.64H194.281V20.48ZM202.641 7.16C206.621 7.16 209.561 9.12 209.561 12.14C209.561 15.16 206.621 17.1 202.641 17.1C198.641 17.1 195.721 15.16 195.721 12.14C195.721 9.12 198.641 7.16 202.641 7.16ZM202.641 9.24C200.061 9.24 198.341 10.3 198.341 12.14C198.341 13.96 200.061 15.04 202.641 15.04C205.221 15.04 206.941 13.96 206.941 12.14C206.941 10.3 205.221 9.24 202.641 9.24Z" fill="#323335"/>
<path fill-rule="evenodd" clip-rule="evenodd" d="M150.753 82.9543C148.814 84.0089 146.498 84.6218 144.011 84.6218C141.814 84.6218 139.75 84.1435 137.962 83.3047C136.099 86.6776 132.261 88.9921 127.828 88.9921C121.568 88.9921 116.493 84.3758 116.493 78.6812C116.493 72.9866 121.568 68.3703 127.828 68.3703C129.714 68.3703 131.493 68.7894 133.057 69.5307C135.123 66.243 139.253 64 144.011 64C148.829 64 153.003 66.2998 155.042 69.6552C158.625 67.3349 163.147 67.3232 166.216 69.9501C170.055 73.2363 170.165 79.4073 166.462 83.7334C162.759 88.0595 156.645 88.9026 152.806 85.6164C151.925 84.862 151.24 83.9555 150.753 82.9543Z" fill="#BBD43E"/>
<path d="M141.011 80.8223C141.584 80.8228 142.157 80.8233 142.747 80.8237C148.784 80.911 155.725 81.4159 160.541 84.7152C161.297 85.0092 162.052 85.3031 162.83 85.606C167.778 87.6362 172.221 90.4194 174.43 94.7444C174.818 96.1617 175.069 97.4026 175.219 98.8353C175.293 99.4547 175.293 99.4547 175.369 100.087C175.678 103.142 175.712 106.179 175.677 109.242C175.673 109.64 175.67 110.037 175.666 110.447C175.643 112.447 175.603 114.445 175.535 116.445C175.418 121.174 176.08 125.268 177.607 129.821C178.358 132.127 178.767 134.366 179.006 136.742C179.052 137.17 179.098 137.598 179.146 138.039C179.494 141.638 179.65 145.24 179.716 148.849C179.733 149.37 179.749 149.89 179.766 150.426C179.777 153.997 179.777 153.997 178.4 155.827C176.955 156.503 176.955 156.503 175.219 156.371C174.75 156.241 174.281 156.11 173.798 155.975C173.775 155.285 173.751 154.595 173.727 153.885C173.51 148.673 173.089 143.611 171.915 138.484C171.432 136.362 171.18 134.382 171.273 132.222C170.648 132.222 170.023 132.222 169.379 132.222C169.323 132.544 169.267 132.866 169.208 133.198C168.498 136.697 167.158 139.485 165.118 142.581C164.854 143 164.591 143.419 164.319 143.851C162.958 145.967 161.526 147.87 159.725 149.744C158.063 151.537 157.6 152.736 157.661 155.052C157.535 157.93 157.535 157.93 155.965 159.571C154.229 160.198 154.229 160.198 152.532 160.198C151.072 159.67 151.072 159.67 150.244 158.813C149.664 157.138 149.73 155.597 149.81 153.864C149.393 153.951 148.976 154.038 148.547 154.128C146.192 154.456 143.99 154.426 141.603 154.392C141.632 154.71 141.662 155.029 141.692 155.357C141.877 158.786 141.877 158.786 140.538 160.528C139.078 161.254 139.078 161.254 137.46 161.221C135.769 160.677 135.087 160.363 134.028 159.142C134.035 158.031 134.095 156.919 134.185 155.81C134.001 152.556 133.15 151.159 130.32 148.94C128.618 147.707 126.895 146.496 125.17 145.287C123.234 143.847 121.585 142.239 119.942 140.569C119.659 140.283 119.375 139.998 119.083 139.704C117.879 138.475 116.775 137.24 115.72 135.917C115.102 137.469 115.008 138.485 115.005 140.103C115.004 140.61 115.004 141.117 115.003 141.639C115.005 142.168 115.008 142.696 115.01 143.241C115.008 143.766 115.005 144.29 115.003 144.831C115.004 145.593 115.004 145.593 115.005 146.371C115.006 146.834 115.007 147.296 115.007 147.773C115.091 149.147 115.377 150.409 115.72 151.753C115.792 152.752 115.831 153.753 115.839 154.755C115.852 155.509 115.852 155.509 115.866 156.278C115.72 157.559 115.72 157.559 114.458 158.615C112.801 158.681 112.801 158.681 111.301 158.615C110.789 157.784 110.293 156.947 109.802 156.107C109.385 155.409 109.385 155.409 108.959 154.697C106.147 148.17 106.754 141.23 106.843 134.399C106.861 132.78 106.876 131.161 106.888 129.542C106.896 128.541 106.907 127.54 106.922 126.539C106.943 124.133 106.776 121.926 106.251 119.554C105.439 107.636 105.599 98.2613 115.405 89.037C123.004 83.4769 130.901 80.8073 141.011 80.8223ZM127.083 103.718C125.549 105.643 125.775 106.401 125.939 108.667C126.022 111.974 126.022 111.974 124.243 113.648C123.722 114.029 123.201 114.41 122.664 114.803C122.216 117.428 122.307 118.47 123.809 120.807C125.196 122.199 126.195 123.141 128.4 123.407C131.429 123.42 133.479 123.336 135.921 121.665C137.397 119.814 137.392 119.091 137.184 116.914C136.608 115.444 136.608 115.444 135.921 114.275C136.351 114.253 136.781 114.231 137.223 114.209C139.87 113.55 141.514 112.142 143.497 110.58C143.809 111.364 143.809 111.364 144.128 112.164C145.993 113.587 147.401 114.66 149.81 115.331C150.48 116.615 150.48 116.615 151.072 118.201C151.916 120.622 151.916 120.622 154.229 122.193C155.527 122.32 155.527 122.32 156.872 122.259C157.666 122.237 158.46 122.215 159.279 122.193C159.279 121.844 159.279 121.496 159.279 121.137C159.643 121.104 160.008 121.072 160.384 121.038C162.519 120.393 163.188 119.606 164.329 117.97C164.859 115.523 164.707 113.773 163.224 111.603C161.797 110.35 161.797 110.35 159.279 110.58C159.279 108.838 159.279 107.096 159.279 105.302C158.862 105.302 158.445 105.302 158.016 105.302C157.99 104.997 157.964 104.692 157.937 104.378C157.053 102.476 155.748 101.978 153.597 101.079C151.16 100.682 148.954 100.579 146.754 101.637C145.6 102.407 145.6 102.407 144.128 103.718C143.711 104.066 143.295 104.415 142.865 104.774C142.397 104.36 141.928 103.946 141.445 103.52C138.718 101.343 136.678 100.811 132.967 100.872C130.529 101.216 128.822 102.288 127.083 103.718Z" fill="#FFA726"/>
<path d="M65.3358 89.1522C66.9103 89.8324 68.2694 90.4971 69.7153 91.3296C70.1052 91.5484 70.495 91.7672 70.8967 91.9927C79.0499 96.6262 83.4665 101.47 85.5368 109.738C85.5368 110.261 85.5368 110.784 85.5368 111.322C86.1618 111.322 86.7867 111.322 87.4306 111.322C87.5909 111.018 87.7512 110.714 87.9164 110.4C88.7796 109.078 89.7803 108.157 91.021 107.066C95.6945 102.72 98.5443 98.2928 100.66 92.7792C101.319 91.2636 101.319 91.2636 102.581 90.2079C104.605 90.024 105.913 90.0086 107.733 90.8038C109.377 92.2019 109.252 93.157 109.249 95.0906C109.143 98.4324 108.323 99.8703 105.738 102.349C105.309 103.46 105.309 103.46 105.106 104.46C104.69 104.46 104.273 104.46 103.844 104.46C103.594 105.035 103.594 105.035 103.338 105.621C101.255 109.69 96.8609 115.411 91.9285 117.293C91.4858 117.413 91.0431 117.533 90.587 117.656C90.3787 118.179 90.1704 118.701 89.9557 119.24C89.5391 119.24 89.1225 119.24 88.6932 119.24C88.7453 119.904 88.7973 120.568 88.851 121.252C88.8569 124.381 87.5671 126.937 86.1681 129.797C85.7967 130.621 85.428 131.445 85.0633 132.271C84.8029 132.848 84.5425 133.425 84.2742 134.02C83.8576 134.02 83.4409 134.02 83.0117 134.02C82.9409 134.328 82.8701 134.636 82.7971 134.954C82.0426 137.085 80.2441 138.647 78.5927 140.354C78.2273 140.744 77.8619 141.134 77.4855 141.535C75.0534 143.994 72.7539 145.552 69.4391 147.15C67.4623 148.109 67.4623 148.109 65.9671 149.327C65.5579 150.934 65.6713 152.189 65.898 153.814C65.9671 155.134 65.9671 155.134 64.5862 156.816C62.6507 157.859 61.8945 158.157 59.6543 157.773C58.2339 157.278 58.2339 157.278 57.1292 156.19C56.7275 154.611 56.5786 153.049 56.4979 151.439C55.9494 151.445 55.4009 151.451 54.8358 151.457C54.1083 151.462 53.3808 151.467 52.6313 151.472C51.9135 151.478 51.1958 151.484 50.4563 151.49C48.4093 151.442 46.5114 151.235 44.5035 150.911C44.4799 151.274 44.4563 151.636 44.432 152.01C44.3905 152.486 44.349 152.961 44.3063 153.451C44.2697 153.923 44.233 154.394 44.1953 154.88C43.8253 156.38 43.4545 156.887 41.9784 157.773C39.7689 158.004 39.7689 158.004 37.5595 157.773C36.3364 156.948 36.3364 156.948 35.6656 155.662C35.4737 153.455 35.6744 151.475 36.2969 149.327C35.8363 149.272 35.3757 149.216 34.9012 149.158C27.7376 147.699 21.2074 141.174 17.319 136.263C15.795 134.138 14.7824 132.223 14.2021 129.797C12.0786 130.195 12.0786 130.195 11.0457 132.139C10.6093 132.936 10.1888 133.739 9.78312 134.548C9.5984 134.911 9.41367 135.274 9.22335 135.649C7.56913 139.495 7.55257 143.445 7.39116 147.486C7.30206 149.542 7.02312 151.521 6.62672 153.55C4.8907 153.715 4.8907 153.715 2.83904 153.55C0.841541 152.018 0.345644 151.12 0.000738875 148.853C-0.00337954 148.066 0.00982334 147.278 0.037728 146.49C0.0474422 146.07 0.0571565 145.649 0.0671651 145.216C0.396255 136.615 3.58805 128.769 8.75729 121.384C10.3211 119.105 10.6938 117.395 10.8459 114.803C12.0449 106.584 20.1188 98.5354 27.6587 93.5215C31.2341 91.2772 34.2533 89.6052 38.822 89.6801C38.1971 91.5962 37.5721 93.5123 36.9282 95.4865C45.9025 95.8601 52.8513 95.0276 59.9477 90.0017C61.985 88.9203 62.9566 88.8381 65.3358 89.1522ZM33.9691 113.813C32.8816 115.393 32.9515 116.506 33.0221 118.316C33.0392 118.885 33.0563 119.454 33.0739 120.04C33.0959 120.473 33.1179 120.905 33.1405 121.351C32.557 121.468 32.557 121.468 31.9618 121.586C29.4099 122.141 28.3165 122.651 26.8277 124.518C26.3963 126.512 26.2904 128.462 27.491 130.265C28.608 131.403 29.6632 132.302 31.2467 132.964C35.1262 133.234 36.9478 132.964 40.0846 130.853C40.8628 130.32 40.8627 130.32 40.7775 129.234C40.7702 128.799 40.7629 128.364 40.7553 127.916C40.7496 127.48 40.7439 127.044 40.7381 126.595C40.7307 126.258 40.7234 125.921 40.7159 125.574C41.0967 125.446 41.4775 125.318 41.8699 125.186C45.8416 123.807 45.8416 123.807 48.9225 121.351C49.235 120.567 49.235 120.567 49.5538 119.768C49.8581 120.066 50.1625 120.365 50.4761 120.673C50.8748 121.06 51.2735 121.447 51.6844 121.846C52.0799 122.232 52.4753 122.618 52.8828 123.015C54.0886 124.094 54.6956 124.496 56.4634 124.57C57.1445 124.561 57.1445 124.561 57.8393 124.551C59.0502 124.535 59.0502 124.535 60.2856 124.518C60.2465 125.074 60.2074 125.629 60.1672 126.201C60.3209 128.814 61.2678 130.09 63.442 131.908C66.7638 132.288 66.7638 132.288 69.7622 131.255C72.1714 129.553 74.0197 128.133 74.4499 125.409C74.0936 122.898 73.2346 121.992 71.0173 120.296C69.5243 119.756 68.2095 119.504 66.5984 119.24C66.5723 118.706 66.5463 118.173 66.5195 117.623C66.1099 115.113 64.3329 113.541 62.1794 111.85C60.0038 110.94 57.6189 111.126 55.2353 111.322C52.9408 112.179 52.2215 112.727 50.8164 114.489C48.7347 114.489 47.8134 113.034 46.3974 111.85C42.0617 110.641 37.289 110.985 33.9691 113.813ZM49.83 129.533C49.3808 130.186 49.3808 130.186 48.9225 130.853C47.3838 130.655 47.3838 130.655 45.7661 130.325C45.5578 129.976 45.3495 129.628 45.1348 129.269C44.5099 129.269 43.8849 129.269 43.241 129.269C43.6309 131.13 43.9228 131.421 45.6872 132.832C48.6754 134.5 51.7671 134.502 55.2353 134.02C57.2866 133.258 57.2866 133.258 58.3917 131.908C58.7604 130.543 58.7604 130.543 58.3917 129.269C56.8885 128.012 56.4303 128.031 54.3673 127.982C51.9735 128.011 51.6342 128.061 49.83 129.533Z" fill="#FFC654"/>
<path d="M222.883 95.282C222.05 97.1981 221.217 99.1142 220.358 101.088C232.043 101.884 232.043 101.884 242.307 98.113C242.692 97.7568 242.692 97.7568 243.084 97.3934C251.475 100.008 256.99 105.256 260.762 111.959C262.022 114.503 262.619 116.908 262.829 119.648C263.192 122.457 264.478 124.661 266.007 127.151C266.525 128.036 267.042 128.922 267.556 129.809C267.801 130.229 268.047 130.649 268.3 131.081C271.082 135.88 272.22 140.045 271.492 145.428C271.075 145.951 270.658 146.473 270.229 147.012C268.099 147.308 268.099 147.308 265.81 147.012C263.697 144.829 262.767 142.75 261.944 140.05C261.104 137.321 261.104 137.321 259.497 134.871C259.497 134.174 259.497 133.477 259.497 132.76C259.081 133.108 258.664 133.456 258.235 133.815C257.942 134.057 257.649 134.298 257.347 134.547C256.647 135.14 255.964 135.748 255.295 136.366C250.344 140.813 244.083 143.683 237.403 145.956C237.372 146.357 237.341 146.757 237.309 147.17C237.262 147.695 237.214 148.22 237.166 148.76C237.122 149.281 237.078 149.801 237.033 150.337C236.771 151.762 236.771 151.762 235.509 153.346C233.084 153.609 231.656 153.637 229.551 152.554C228.133 150.657 228.497 149.231 228.565 147.012C226.855 147.086 225.145 147.164 223.435 147.242C222.955 147.263 222.475 147.284 221.981 147.305C217.981 147.483 217.981 147.483 214.045 148.067C213.249 149.314 213.249 149.314 212.783 150.707C211.994 151.663 211.994 151.663 210.889 152.29C208.939 152.494 207.668 152.543 205.917 151.762C204.267 149.309 205.207 145.957 205.839 143.317C205.472 143.177 205.106 143.038 204.729 142.894C198.641 140.171 193.591 134.732 190.688 129.592C190.688 128.896 190.688 128.199 190.688 127.481C190.271 127.481 189.855 127.481 189.425 127.481C189.243 127.938 189.061 128.396 188.873 128.867C188.438 129.958 187.986 131.045 187.504 132.122C186.671 134.458 186.651 136.71 186.547 139.133C186.269 140.677 186.269 140.677 185.401 141.684C184.375 142.261 184.375 142.261 182.757 142.162C181.219 141.733 181.219 141.733 179.956 140.677C179.326 135.204 179.918 130.464 182.481 125.37C184.246 121.779 185.731 118.422 186.506 114.582C188.151 107.166 192.754 101.058 199.802 96.3707C206.477 92.7852 215.803 92.3825 222.883 95.282ZM202.051 113.229C201.404 114.422 201.404 114.422 201.025 115.67C200.28 117.877 200.28 117.877 198.894 119.035C198.541 121.168 198.543 123.237 198.894 125.37C200.261 126.841 200.261 126.841 202.051 127.481C202.468 127.655 202.884 127.829 203.313 128.009C206.367 128.222 207.794 128.26 210.534 127.052C212.292 125.998 212.292 125.998 212.783 124.314C213.365 124.389 213.365 124.389 213.959 124.466C214.469 124.525 214.979 124.584 215.505 124.644C216.01 124.705 216.516 124.766 217.036 124.829C218.645 124.955 218.645 124.955 220.358 123.786C220.905 124.134 221.452 124.483 222.015 124.842C224.281 125.964 225.362 126.102 227.933 125.897C227.985 126.191 228.038 126.485 228.091 126.788C228.775 128.552 229.404 129.411 231.09 130.648C233.805 131.182 236.24 131.113 238.774 130.1C241.07 128.68 242.087 127.409 242.532 125.04C242.631 122.959 242.124 122.23 240.559 120.619C240.364 119.421 240.283 118.248 240.246 117.039C239.785 115.343 239.096 114.763 237.403 113.757C235.644 113.559 234.18 113.484 232.431 113.526C231.993 113.522 231.554 113.518 231.102 113.515C226.56 113.561 223.728 115.048 220.358 117.452C220.202 116.88 220.202 116.88 220.042 116.297C218.66 114.13 216.544 113.353 214.045 112.173C213.42 111.825 212.795 111.477 212.151 111.118C210.362 110.91 210.362 110.91 208.403 110.92C207.746 110.905 207.09 110.89 206.413 110.874C204.119 111.178 203.442 111.699 202.051 113.229Z" fill="#EFA2A0"/>
<path d="M259.958 135.152C258.697 134.521 258.085 134.313 257.158 134.196V130.236L259.685 131.328L259.958 135.152Z" fill="#EFA2A0"/>
<path d="M89.2238 120.229L88.8374 122.203L87.971 121.258L87.761 118.477L90.0911 118.134L89.9973 119.255L89.4451 119.507L89.2238 120.229Z" fill="#FFC654"/>
<path d="M89.9986 119.173L89.131 120.539L88.7695 119.173H89.9986Z" fill="#FFC654"/>
<path d="M90.6818 107.565L85.4922 109.477L88.2236 111.662L90.6818 107.565Z" fill="#FFC654"/>
<path fill-rule="evenodd" clip-rule="evenodd" d="M68.1647 75.9504L65.681 81.273L64.4494 83.9502L63.2177 86.6274L62.3843 88.0837C62.1765 88.4953 61.9431 88.9034 61.685 89.3056L61.5113 89.6092L61.3546 89.7983C60.1893 91.4617 58.5983 93.0053 56.65 94.2551C53.7971 96.0852 50.6912 96.9561 47.9179 96.9007L47.0532 96.9514L41.0776 96.8305L35.1225 96.7413L36.2525 94.2192L37.3892 91.6029L38.4043 89.424L39.4194 87.2451L40.5703 85.069L41.0583 84.265C41.2379 83.9398 41.4335 83.6173 41.6446 83.2987L41.7759 83.0825L41.8684 82.9709C43.0327 81.3132 44.6199 79.7753 46.5623 78.5293C48.7997 77.094 51.1928 76.2487 53.459 75.9775L53.8441 75.8804L56.234 75.7403L62.2095 75.8612L68.1647 75.9504Z" fill="#BBD43E"/>
<path d="M233.669 95.957C229.609 95.4798 227.167 95.3196 222.539 95.3424L215.847 100.873L221.173 105.107L240.019 101.283L243.024 97.4592C240.201 96.9821 238.314 96.6733 233.669 95.957Z" fill="#EFA2A0"/>
<path d="M88.0868 110.596L85.4051 109.341L83.9897 111.154L86.6715 112.618L88.0868 110.596Z" fill="#FFC654"/>
<path d="M93.9085 117.429L89.4526 119.993L90.3577 115.073L93.9085 110.707H100.105L97.1112 114.449L93.9085 117.429Z" fill="#FFC654"/>
<path d="M104.338 105.722C102.494 107.907 101.758 108.76 100.104 110.706L102.836 100.395L108.299 99.3711C108.299 99.3711 106.182 103.536 104.338 105.722Z" fill="#FFC654"/>
<path d="M81.668 136.927L84.2628 134.059L82.7325 133.104L81.668 136.927Z" fill="#FFC654"/>
<path fill-rule="evenodd" clip-rule="evenodd" d="M239.25 86.5897L237.478 89.7921L236.598 91.4022L235.718 93.0122L235.138 93.894C234.991 94.1429 234.828 94.391 234.65 94.6366L234.53 94.8199L234.424 94.9361C233.629 95.9539 232.574 96.9202 231.31 97.7311C229.46 98.9179 227.494 99.5582 225.775 99.6458L225.233 99.7128L221.527 99.8998L217.832 100.105L218.643 98.5891L219.461 97.0186L220.186 95.7077L220.91 94.3968L221.719 93.0816L222.059 92.589C222.183 92.3947 222.317 92.2013 222.46 92.0095L222.553 91.8744L222.617 91.804C223.411 90.7903 224.463 89.828 225.722 89.0201C227.174 88.0889 228.697 87.4942 230.116 87.2388L230.359 87.166L231.849 86.9815L235.556 86.7944L239.25 86.5897Z" fill="#BBD43E"/>
<path d="M198.161 107.702L233.942 108.863H235.376L246.028 114.326L247.667 129.485L228.206 134.674L201.711 132.353L192.425 119.037L198.161 107.702Z" fill="#EFA2A0"/>
<path d="M22.6701 110.911L52.3054 101.078L82.1456 118.081L72.5858 134.811L40.7654 141.639L17.4805 128.187L22.6701 110.911Z" stroke="#FFC654" stroke-width="0.26539"/>
<path d="M18.8462 109.819L56.1294 107.907L83.5113 119.447L71.7665 133.172L41.858 140.82L29.2254 135.084L18.8462 123.817V109.819Z" fill="#FFC654"/>
<path d="M119.156 100.942L152 97.6641L167.911 103.741V122.929L156.644 126.685L133.222 129.962L119.156 117.808V100.942Z" fill="#FFA726"/>
<circle cx="149.49" cy="111.6" r="6.43245" fill="white"/>
<circle cx="149.49" cy="111.6" r="3.85947" fill="#323335"/>
<circle cx="149.49" cy="111.6" r="3.85947" fill="#323335"/>
<circle cx="149.49" cy="111.6" r="3.85947" fill="#323335"/>
<circle cx="149.49" cy="111.6" r="3.85947" fill="#323335"/>
<circle cx="149.49" cy="111.6" r="3.85947" fill="#323335"/>
<circle cx="143.315" cy="118.805" r="1.28649" fill="#323335"/>
<circle cx="143.315" cy="118.805" r="1.28649" fill="#323335"/>
<circle cx="143.315" cy="118.805" r="1.28649" fill="#323335"/>
<circle cx="143.315" cy="118.805" r="1.28649" fill="#323335"/>
<circle cx="143.315" cy="118.805" r="1.28649" fill="#323335"/>
<circle cx="50.1732" cy="123.951" r="1.28649" fill="#323335"/>
<circle cx="50.1732" cy="123.951" r="1.28649" fill="#323335"/>
<circle cx="50.1732" cy="123.951" r="1.28649" fill="#323335"/>
<circle cx="50.1732" cy="123.951" r="1.28649" fill="#323335"/>
<circle cx="50.1732" cy="123.951" r="1.28649" fill="#323335"/>
<circle cx="220.504" cy="123.436" r="1.28649" fill="#323335"/>
<circle cx="220.504" cy="123.436" r="1.28649" fill="#323335"/>
<circle cx="220.504" cy="123.436" r="1.28649" fill="#323335"/>
<circle cx="220.504" cy="123.436" r="1.28649" fill="#323335"/>
<circle cx="220.504" cy="123.436" r="1.28649" fill="#323335"/>
<circle cx="136.625" cy="111.6" r="6.43245" fill="white"/>
<circle cx="136.625" cy="111.6" r="3.85947" fill="#323335"/>
<circle cx="136.625" cy="111.6" r="3.85947" fill="#323335"/>
<circle cx="136.625" cy="111.6" r="3.85947" fill="#323335"/>
<circle cx="136.625" cy="111.6" r="3.85947" fill="#323335"/>
<circle cx="136.625" cy="111.6" r="3.85947" fill="#323335"/>
<ellipse cx="72.0436" cy="130.383" rx="8.23353" ry="7.71894" fill="#FFB31A"/>
<ellipse cx="124.532" cy="125.237" rx="8.23353" ry="7.71894" fill="#FF9800"/>
<ellipse cx="161.068" cy="125.237" rx="8.23353" ry="7.71894" fill="#FF9800"/>
<ellipse cx="204.809" cy="130.898" rx="8.23353" ry="7.71894" fill="#FF7470"/>
<ellipse cx="239.287" cy="130.898" rx="8.23353" ry="7.71894" fill="#FF7470"/>
<ellipse cx="30.361" cy="130.383" rx="8.23353" ry="7.71894" fill="#FFB31A"/>
<circle cx="56.3485" cy="117.775" r="6.43245" fill="white"/>
<circle cx="56.3482" cy="117.775" r="3.85947" fill="#323335"/>
<circle cx="56.3482" cy="117.775" r="3.85947" fill="#323335"/>
<circle cx="56.3482" cy="117.775" r="3.85947" fill="#323335"/>
<circle cx="56.3482" cy="117.775" r="3.85947" fill="#323335"/>
<circle cx="56.3482" cy="117.775" r="3.85947" fill="#323335"/>
<circle cx="43.4832" cy="117.775" r="6.43245" fill="white"/>
<circle cx="43.4835" cy="117.775" r="3.85947" fill="#323335"/>
<circle cx="43.4835" cy="117.775" r="3.85947" fill="#323335"/>
<circle cx="43.4835" cy="117.775" r="3.85947" fill="#323335"/>
<circle cx="43.4835" cy="117.775" r="3.85947" fill="#323335"/>
<circle cx="43.4835" cy="117.775" r="3.85947" fill="#323335"/>
<circle cx="226.68" cy="116.746" r="6.43245" fill="white"/>
<circle cx="226.679" cy="116.746" r="3.85947" fill="#323335"/>
<circle cx="226.679" cy="116.746" r="3.85947" fill="#323335"/>
<circle cx="226.679" cy="116.746" r="3.85947" fill="#323335"/>
<circle cx="226.679" cy="116.746" r="3.85947" fill="#323335"/>
<circle cx="226.679" cy="116.746" r="3.85947" fill="#323335"/>
<circle cx="213.814" cy="116.746" r="6.43245" fill="white"/>
<circle cx="213.815" cy="116.746" r="3.85947" fill="#323335"/>
<circle cx="213.815" cy="116.746" r="3.85947" fill="#323335"/>
<circle cx="213.815" cy="116.746" r="3.85947" fill="#323335"/>
<circle cx="213.815" cy="116.746" r="3.85947" fill="#323335"/>
<circle cx="213.815" cy="116.746" r="3.85947" fill="#323335"/>
<path d="M21.9263 104.378C21.6026 104.673 21.1444 105.102 20.9123 105.345C18.4445 107.927 18.2247 108.2 18.1149 108.964C18.0051 109.806 18.3598 110.978 18.9344 111.631C19.7656 112.593 20.8839 113.08 21.7454 112.856C22.2219 112.737 22.2769 112.698 22.6861 112.213C23.5535 111.169 23.7428 110.97 24.6408 110.073C25.838 108.885 29.0574 106.571 30.4198 105.9C31.715 105.277 32.7963 104.806 33.1873 104.696C34.3543 104.372 34.8794 103.261 34.5063 101.869C34.4085 101.499 34.2862 101.275 33.8644 100.681C33.4121 100.045 33.2838 99.9163 32.8865 99.6679C32.636 99.5095 32.2205 99.3259 31.9638 99.2495C31.1633 99.0418 30.6135 99.2126 27.235 100.786C26.3308 101.208 22.7998 103.589 21.9263 104.378Z" fill="#FFBC93"/>
<path d="M23.458 104.281C23.3011 104.436 23.0799 104.661 22.9697 104.791C21.7989 106.171 21.6978 106.32 21.6951 106.775C21.6984 107.278 21.9841 108.016 22.3521 108.456C22.886 109.104 23.5426 109.484 24.0029 109.414C24.2579 109.378 24.2854 109.359 24.4753 109.095C24.8764 108.528 24.9662 108.421 25.3955 107.945C25.9685 107.315 27.5762 106.155 28.28 105.852C28.9503 105.572 29.5136 105.368 29.7219 105.332C30.3438 105.223 30.5503 104.589 30.2376 103.716C30.1552 103.483 30.0704 103.338 29.7916 102.946C29.4925 102.525 29.4116 102.437 29.1726 102.256C29.0217 102.141 28.7775 101.998 28.6295 101.932C28.1701 101.745 27.8784 101.807 26.1262 102.504C25.6573 102.692 23.882 103.869 23.458 104.281Z" fill="#FFE2D0"/>
<circle cx="22.3326" cy="109.85" r="0.257298" transform="rotate(133.372 22.3326 109.85)" fill="#FFE2D0"/>
<circle cx="21.626" cy="110.598" r="0.257298" transform="rotate(133.372 21.626 110.598)" fill="#FFE2D0"/>
<circle cx="20.919" cy="111.346" r="0.257298" transform="rotate(133.372 20.919 111.346)" fill="#FFE2D0"/>
<circle cx="20.1709" cy="110.64" r="0.257298" transform="rotate(133.372 20.1709 110.64)" fill="#FFE2D0"/>
<circle cx="20.878" cy="109.891" r="0.257298" transform="rotate(133.372 20.878 109.891)" fill="#FFE2D0"/>
<circle cx="21.5845" cy="109.143" r="0.257298" transform="rotate(133.372 21.5845 109.143)" fill="#FFE2D0"/>
<circle cx="20.8365" cy="108.436" r="0.257298" transform="rotate(133.372 20.8365 108.436)" fill="#FFE2D0"/>
<circle cx="20.1294" cy="109.185" r="0.257298" transform="rotate(133.372 20.1294 109.185)" fill="#FFE2D0"/>
<circle cx="19.4224" cy="109.933" r="0.257298" transform="rotate(133.372 19.4224 109.933)" fill="#FFE2D0"/>
<circle cx="32.857" cy="102.827" r="0.257298" transform="rotate(164.624 32.857 102.827)" fill="#FFE2D0"/>
<circle cx="31.8648" cy="103.1" r="0.257298" transform="rotate(164.624 31.8648 103.1)" fill="#FFE2D0"/>
<circle cx="30.8722" cy="103.373" r="0.257298" transform="rotate(164.624 30.8722 103.373)" fill="#FFE2D0"/>
<circle cx="30.5997" cy="102.381" r="0.257298" transform="rotate(164.624 30.5997 102.381)" fill="#FFE2D0"/>
<circle cx="31.5919" cy="102.108" r="0.257298" transform="rotate(164.624 31.5919 102.108)" fill="#FFE2D0"/>
<circle cx="32.5846" cy="101.835" r="0.257298" transform="rotate(164.624 32.5846 101.835)" fill="#FFE2D0"/>
<circle cx="32.3116" cy="100.843" r="0.257298" transform="rotate(164.624 32.3116 100.843)" fill="#FFE2D0"/>
<circle cx="31.3189" cy="101.115" r="0.257298" transform="rotate(164.624 31.3189 101.115)" fill="#FFE2D0"/>
<circle cx="30.3263" cy="101.388" r="0.257298" transform="rotate(164.624 30.3263 101.388)" fill="#FFE2D0"/>
<path d="M165.012 92.2159C164.687 91.9227 164.215 91.5089 163.951 91.3017C161.138 89.0995 160.845 88.9074 160.074 88.8732C159.226 88.8466 158.095 89.3147 157.501 89.9506C156.625 90.8723 156.251 92.0329 156.558 92.8682C156.723 93.3308 156.767 93.3817 157.29 93.7413C158.414 94.502 158.631 94.6709 159.612 95.4764C160.911 96.5513 163.531 99.5278 164.332 100.818C165.079 102.046 165.654 103.075 165.801 103.454C166.239 104.583 167.396 104.997 168.744 104.489C169.104 104.355 169.314 104.211 169.863 103.733C170.452 103.221 170.568 103.08 170.776 102.661C170.909 102.396 171.051 101.964 171.102 101.701C171.23 100.884 171.006 100.354 169.109 97.1462C168.599 96.2879 165.884 93.0077 165.012 92.2159Z" fill="#FFBC93"/>
<path d="M165.26 93.7312C165.09 93.5902 164.844 93.3922 164.704 93.2954C163.216 92.2657 163.058 92.1797 162.604 92.2218C162.105 92.2744 161.398 92.6312 160.996 93.0407C160.404 93.6355 160.09 94.3264 160.205 94.7775C160.266 95.0278 160.288 95.0532 160.569 95.2163C161.173 95.5598 161.288 95.6386 161.804 96.0191C162.487 96.5275 163.799 98.0135 164.17 98.6842C164.514 99.3237 164.772 99.8643 164.829 100.068C164.998 100.676 165.65 100.819 166.488 100.423C166.711 100.318 166.847 100.219 167.21 99.9031C167.6 99.5641 167.679 99.475 167.836 99.2193C167.936 99.0579 168.054 98.8008 168.105 98.647C168.246 98.1715 168.156 97.8873 167.29 96.212C167.057 95.7639 165.712 94.1126 165.26 93.7312Z" fill="#FFE2D0"/>
<circle cx="159.607" cy="93.1576" r="0.257298" transform="rotate(-142.264 159.607 93.1576)" fill="#FFE2D0"/>
<circle cx="158.793" cy="92.5282" r="0.257298" transform="rotate(-142.264 158.793 92.5282)" fill="#FFE2D0"/>
<circle cx="157.979" cy="91.8978" r="0.257298" transform="rotate(-142.264 157.979 91.8978)" fill="#FFE2D0"/>
<circle cx="158.609" cy="91.0844" r="0.257298" transform="rotate(-142.264 158.609 91.0844)" fill="#FFE2D0"/>
<circle cx="159.423" cy="91.7138" r="0.257298" transform="rotate(-142.264 159.423 91.7138)" fill="#FFE2D0"/>
<circle cx="160.237" cy="92.3436" r="0.257298" transform="rotate(-142.264 160.237 92.3436)" fill="#FFE2D0"/>
<circle cx="160.867" cy="91.5302" r="0.257298" transform="rotate(-142.264 160.867 91.5302)" fill="#FFE2D0"/>
<circle cx="160.053" cy="90.8998" r="0.257298" transform="rotate(-142.264 160.053 90.8998)" fill="#FFE2D0"/>
<circle cx="159.239" cy="90.2699" r="0.257298" transform="rotate(-142.264 159.239 90.2699)" fill="#FFE2D0"/>
<circle cx="167.629" cy="102.941" r="0.257298" transform="rotate(-111.011 167.629 102.941)" fill="#FFE2D0"/>
<circle cx="167.26" cy="101.981" r="0.257298" transform="rotate(-111.011 167.26 101.981)" fill="#FFE2D0"/>
<circle cx="166.892" cy="101.02" r="0.257298" transform="rotate(-111.011 166.892 101.02)" fill="#FFE2D0"/>
<circle cx="167.852" cy="100.651" r="0.257298" transform="rotate(-111.011 167.852 100.651)" fill="#FFE2D0"/>
<circle cx="168.221" cy="101.612" r="0.257298" transform="rotate(-111.011 168.221 101.612)" fill="#FFE2D0"/>
<circle cx="168.59" cy="102.573" r="0.257298" transform="rotate(-111.011 168.59 102.573)" fill="#FFE2D0"/>
<circle cx="169.551" cy="102.204" r="0.257298" transform="rotate(-111.011 169.551 102.204)" fill="#FFE2D0"/>
<circle cx="169.182" cy="101.243" r="0.257298" transform="rotate(-111.011 169.182 101.243)" fill="#FFE2D0"/>
<circle cx="168.813" cy="100.282" r="0.257298" transform="rotate(-111.011 168.813 100.282)" fill="#FFE2D0"/>
<circle cx="67.412" cy="129.868" r="1.02919" fill="#815C13"/>
<circle cx="69.9852" cy="133.985" r="1.02919" fill="#815C13"/>
<circle cx="72.558" cy="129.868" r="1.02919" fill="#815C13"/>
<circle cx="69.9852" cy="126.266" r="1.02919" fill="#815C13"/>
<circle cx="78.2186" cy="129.868" r="1.02919" fill="#815C13"/>
<circle cx="75.1308" cy="126.266" r="1.02919" fill="#815C13"/>
<circle cx="75.1308" cy="133.985" r="1.02919" fill="#815C13"/>
<circle cx="25.2152" cy="129.868" r="1.02919" fill="#815C13"/>
<circle cx="27.788" cy="133.985" r="1.02919" fill="#815C13"/>
<circle cx="30.3612" cy="129.868" r="1.02919" fill="#815C13"/>
<circle cx="27.788" cy="126.266" r="1.02919" fill="#815C13"/>
<circle cx="36.0219" cy="129.868" r="1.02919" fill="#815C13"/>
<circle cx="32.934" cy="126.266" r="1.02919" fill="#815C13"/>
<circle cx="32.934" cy="133.985" r="1.02919" fill="#815C13"/>
<path d="M54.7791 135.781C55.5036 135.728 56.5404 135.644 57.0901 135.581C62.9361 134.905 63.4982 134.81 64.3851 134.251C65.347 133.629 65.9966 132.468 65.8467 131.603C65.6468 130.337 64.5975 129.293 63.2109 128.976C62.449 128.797 62.3365 128.797 61.3122 128.955C59.1262 129.303 58.6765 129.356 56.5904 129.567C53.8173 129.841 47.2092 129.862 44.7109 129.62C42.35 129.377 40.4263 129.134 39.7892 128.997C37.8905 128.586 36.1042 129.187 35.2672 130.538C35.0424 130.896 34.9924 131.15 34.9924 131.877C34.9924 132.658 35.0424 132.838 35.3422 133.27C35.5296 133.544 35.9168 133.935 36.1916 134.146C37.0785 134.779 37.9904 134.958 44.0988 135.633C45.7352 135.813 52.8304 135.918 54.7791 135.781Z" fill="#EB5645"/>
<path fill-rule="evenodd" clip-rule="evenodd" d="M38.3385 131.38C37.9954 131.525 37.8111 131.678 37.8111 131.837C37.8111 132.715 43.4395 133.426 50.3826 133.426C57.3256 133.426 62.9541 132.715 62.9541 131.837C62.9541 131.679 62.7698 131.525 62.4269 131.381C60.8741 132.035 56.0694 132.513 50.3828 132.513C44.696 132.513 39.8911 132.035 38.3385 131.38Z" fill="#323335"/>
<path d="M147.921 130.121C148.646 130.068 149.683 129.984 150.232 129.92C156.078 129.245 156.64 129.15 157.527 128.591C158.489 127.969 159.139 126.808 158.989 125.943C158.789 124.677 157.74 123.632 156.353 123.316C155.591 123.137 155.479 123.137 154.454 123.295C152.268 123.643 151.819 123.696 149.732 123.907C146.959 124.181 140.351 124.202 137.853 123.96C135.492 123.717 133.568 123.474 132.931 123.337C131.033 122.926 129.246 123.527 128.409 124.877C128.184 125.236 128.135 125.489 128.135 126.217C128.135 126.998 128.184 127.177 128.484 127.61C128.672 127.884 129.059 128.275 129.334 128.486C130.221 129.119 131.132 129.298 137.241 129.973C138.877 130.153 145.973 130.258 147.921 130.121Z" fill="#EB5645"/>
<path fill-rule="evenodd" clip-rule="evenodd" d="M131.481 125.72C131.138 125.865 130.953 126.018 130.953 126.177C130.953 127.055 136.582 127.766 143.525 127.766C150.468 127.766 156.096 127.055 156.096 126.177C156.096 126.018 155.912 125.865 155.568 125.72C154.015 126.375 149.211 126.852 143.525 126.852C137.839 126.852 133.034 126.375 131.481 125.72Z" fill="#323335"/>
<path d="M226.139 134.238C226.864 134.185 227.901 134.1 228.45 134.037C234.296 133.362 234.859 133.267 235.745 132.708C236.707 132.085 237.357 130.925 237.207 130.06C237.007 128.794 235.958 127.749 234.571 127.433C233.809 127.253 233.697 127.253 232.673 127.412C230.487 127.76 230.037 127.812 227.951 128.024C225.178 128.298 218.57 128.319 216.071 128.076C213.71 127.834 211.787 127.591 211.15 127.454C209.251 127.042 207.465 127.644 206.628 128.994C206.403 129.353 206.353 129.606 206.353 130.334C206.353 131.115 206.403 131.294 206.703 131.727C206.89 132.001 207.277 132.391 207.552 132.602C208.439 133.235 209.351 133.415 215.459 134.09C217.096 134.269 224.191 134.375 226.139 134.238Z" fill="#EB5645"/>
<path fill-rule="evenodd" clip-rule="evenodd" d="M209.699 129.837C209.356 129.982 209.171 130.135 209.171 130.294C209.171 131.171 214.8 131.883 221.743 131.883C228.686 131.883 234.314 131.171 234.314 130.294C234.314 130.135 234.13 129.982 233.787 129.837C232.234 130.492 227.429 130.969 221.743 130.969C216.057 130.969 211.252 130.492 209.699 129.837Z" fill="#323335"/>
<path fill-rule="evenodd" clip-rule="evenodd" d="M160.902 142.097C161.007 142.067 161.099 142.011 161.176 141.927C161.601 141.463 161.382 140.327 160.688 139.389C159.993 138.452 159.086 138.068 158.661 138.532C158.584 138.616 158.528 138.721 158.493 138.844C158.965 138.708 159.676 139.105 160.245 139.872C160.814 140.64 161.064 141.541 160.902 142.097Z" fill="#7E4E09"/>
<path fill-rule="evenodd" clip-rule="evenodd" d="M159.205 144.186C159.309 144.156 159.402 144.099 159.479 144.016C159.904 143.552 159.685 142.416 158.991 141.478C158.296 140.541 157.389 140.157 156.964 140.62C156.887 140.704 156.831 140.81 156.795 140.933C157.268 140.797 157.979 141.193 158.548 141.961C159.117 142.729 159.367 143.63 159.205 144.186Z" fill="#7E4E09"/>
<path fill-rule="evenodd" clip-rule="evenodd" d="M157.003 145.498C157.107 145.468 157.2 145.412 157.277 145.328C157.702 144.864 157.483 143.728 156.788 142.791C156.094 141.853 155.186 141.469 154.762 141.933C154.685 142.017 154.629 142.123 154.593 142.246C155.065 142.109 155.777 142.506 156.346 143.274C156.915 144.042 157.165 144.943 157.003 145.498Z" fill="#7E4E09"/>
<path fill-rule="evenodd" clip-rule="evenodd" d="M154.462 146.878C154.567 146.848 154.659 146.792 154.736 146.708C155.161 146.244 154.942 145.108 154.247 144.171C153.553 143.233 152.645 142.849 152.221 143.313C152.144 143.397 152.088 143.503 152.052 143.626C152.524 143.489 153.236 143.885 153.805 144.654C154.374 145.421 154.624 146.322 154.462 146.878Z" fill="#7E4E09"/>
<path fill-rule="evenodd" clip-rule="evenodd" d="M149.82 146.547C149.705 146.78 149.673 146.96 149.735 147.074C150.078 147.702 153.16 146.086 156.619 143.464C160.078 140.842 162.605 138.207 162.262 137.579C162.2 137.465 162.048 137.425 161.821 137.451C161.302 138.507 159.095 140.662 156.262 142.809C153.429 144.956 150.849 146.429 149.82 146.547Z" fill="#7E4E09"/>
<path fill-rule="evenodd" clip-rule="evenodd" d="M242.295 103.426C242.262 103.322 242.203 103.231 242.117 103.157C241.642 102.744 240.513 102.992 239.594 103.711C238.675 104.43 238.315 105.348 238.789 105.76C238.875 105.835 238.983 105.888 239.106 105.92C238.958 105.452 239.336 104.73 240.088 104.141C240.841 103.552 241.735 103.279 242.295 103.426Z" fill="#7E4E09"/>
<path fill-rule="evenodd" clip-rule="evenodd" d="M244.427 105.068C244.395 104.964 244.336 104.873 244.25 104.798C243.775 104.386 242.645 104.634 241.726 105.353C240.807 106.072 240.447 106.989 240.922 107.402C241.008 107.476 241.115 107.529 241.239 107.562C241.091 107.093 241.468 106.372 242.221 105.783C242.974 105.194 243.868 104.921 244.427 105.068Z" fill="#7E4E09"/>
<path fill-rule="evenodd" clip-rule="evenodd" d="M245.797 107.235C245.764 107.131 245.706 107.04 245.62 106.966C245.145 106.553 244.015 106.801 243.096 107.52C242.177 108.239 241.817 109.157 242.292 109.569C242.378 109.644 242.485 109.697 242.609 109.729C242.46 109.261 242.838 108.539 243.591 107.95C244.343 107.361 245.237 107.088 245.797 107.235Z" fill="#7E4E09"/>
<path fill-rule="evenodd" clip-rule="evenodd" d="M247.243 109.738C247.21 109.635 247.151 109.544 247.065 109.469C246.591 109.056 245.461 109.305 244.542 110.024C243.623 110.743 243.263 111.66 243.738 112.073C243.823 112.147 243.931 112.2 244.055 112.233C243.906 111.764 244.284 111.042 245.036 110.453C245.789 109.865 246.683 109.591 247.243 109.738Z" fill="#7E4E09"/>
<path fill-rule="evenodd" clip-rule="evenodd" d="M247.034 114.388C247.271 114.496 247.451 114.524 247.563 114.459C248.182 114.1 246.485 111.061 243.774 107.672C241.062 104.282 238.362 101.826 237.743 102.185C237.631 102.25 237.595 102.403 237.627 102.63C238.695 103.12 240.908 105.27 243.129 108.046C245.35 110.821 246.889 113.362 247.034 114.388Z" fill="#7E4E09"/>
<path fill-rule="evenodd" clip-rule="evenodd" d="M115.03 96.0009C114.868 96.012 114.716 96.0564 114.58 96.1371C113.824 96.5829 113.815 97.9677 114.559 99.2302C115.304 100.493 116.52 101.155 117.276 100.709C117.413 100.628 117.525 100.517 117.613 100.381C116.882 100.431 115.956 99.7997 115.346 98.7657C114.737 97.7319 114.632 96.6159 115.03 96.0009Z" fill="#7E4E09"/>
<path fill-rule="evenodd" clip-rule="evenodd" d="M118.118 93.9423C117.956 93.9534 117.804 93.9978 117.667 94.0785C116.912 94.5243 116.902 95.9091 117.647 97.1716C118.392 98.4341 119.608 99.0961 120.364 98.6503C120.501 98.5696 120.613 98.4582 120.701 98.3223C119.97 98.3726 119.044 97.7414 118.434 96.7073C117.824 95.6734 117.72 94.5573 118.118 93.9423Z" fill="#7E4E09"/>
<path fill-rule="evenodd" clip-rule="evenodd" d="M121.72 92.913C121.558 92.9241 121.406 92.9685 121.27 93.0492C120.514 93.495 120.504 94.8798 121.249 96.1423C121.994 97.4048 123.21 98.0668 123.966 97.621C124.103 97.5404 124.215 97.429 124.303 97.2931C123.572 97.3433 122.646 96.7121 122.036 95.6781C121.426 94.6441 121.322 93.528 121.72 92.913Z" fill="#7E4E09"/>
<path fill-rule="evenodd" clip-rule="evenodd" d="M125.836 91.8842C125.675 91.8953 125.523 91.9397 125.386 92.0204C124.63 92.4662 124.621 93.851 125.366 95.1135C126.11 96.376 127.327 97.038 128.083 96.5922C128.219 96.5115 128.332 96.3999 128.42 96.2639C127.689 96.3142 126.763 95.683 126.153 94.6489C125.543 93.6151 125.439 92.4993 125.836 91.8842Z" fill="#7E4E09"/>
<path fill-rule="evenodd" clip-rule="evenodd" d="M132.533 93.3521C132.768 93.1049 132.867 92.9017 132.809 92.7537C132.49 91.9364 127.512 93.1174 121.692 95.3918C115.871 97.6661 111.412 100.172 111.731 100.99C111.789 101.138 111.999 101.22 112.34 101.243C113.403 100.124 117.257 98.1056 122.024 96.2429C126.791 94.3802 130.993 93.2508 132.533 93.3521Z" fill="#7E4E09"/>
</svg>
