<svg width="28" height="28" viewBox="0 0 28 28" fill="none" xmlns="http://www.w3.org/2000/svg">
<path d="M8.14281 24.5237L8.14282 24.5237C8.70129 25.0822 9.39333 25.3053 10.1396 25.4057C10.842 25.5001 11.7233 25.5 12.7654 25.5L12.8332 25.5H15.1665L15.2343 25.5C16.2763 25.5 17.1577 25.5001 17.8601 25.4057C18.6063 25.3053 19.2984 25.0822 19.8569 24.5237C20.4153 23.9652 20.6385 23.2732 20.7388 22.5269C20.8333 21.8245 20.8332 20.9432 20.8332 19.9011L20.8332 19.8333V8.16667L20.8332 8.09887C20.8332 7.05681 20.8333 6.17546 20.7388 5.47312C20.6385 4.72683 20.4153 4.03479 19.8569 3.47631C19.2984 2.91783 18.6063 2.69468 17.8601 2.59434C17.1577 2.49992 16.2764 2.49995 15.2343 2.5L15.1665 2.5H12.8332C12.8105 2.5 12.7879 2.5 12.7654 2.5C11.7233 2.49995 10.842 2.49992 10.1396 2.59434C9.39333 2.69468 8.70129 2.91783 8.14281 3.47631C7.58434 4.03479 7.36118 4.72683 7.26085 5.47312C7.16642 6.17546 7.16646 7.05681 7.1665 8.09887C7.1665 8.1214 7.1665 8.14399 7.1665 8.16667V19.8333L7.1665 19.9011C7.16646 20.9432 7.16642 21.8245 7.26085 22.5269C7.36118 23.2732 7.58434 23.9652 8.14281 24.5237Z" stroke="#858586" stroke-width="2"/>
<path d="M8.1665 18.6665H19.8332" stroke="#858586" stroke-width="2"/>
</svg>
