<svg width="28" height="28" viewBox="0 0 28 28" fill="none" xmlns="http://www.w3.org/2000/svg">
<path d="M14.3988 20.8051L14.8547 21.6951H14.8547L14.3988 20.8051ZM13.6016 20.8051L14.0576 19.9151L13.6016 20.8051ZM21.1668 10.4999C21.1668 13.0973 19.8268 15.2239 18.1915 16.8526C16.5578 18.4797 14.7176 19.5182 13.9428 19.9151L14.8547 21.6951C15.7183 21.2527 17.7621 20.103 19.6029 18.2697C21.442 16.4379 23.1668 13.8316 23.1668 10.4999H21.1668ZM14.0002 3.33325C17.9582 3.33325 21.1668 6.54188 21.1668 10.4999H23.1668C23.1668 5.43731 19.0628 1.33325 14.0002 1.33325V3.33325ZM6.8335 10.4999C6.8335 6.54188 10.0421 3.33325 14.0002 3.33325V1.33325C8.93755 1.33325 4.8335 5.43731 4.8335 10.4999H6.8335ZM14.0576 19.9151C13.2828 19.5182 11.4425 18.4797 9.80883 16.8526C8.17354 15.2239 6.8335 13.0973 6.8335 10.4999H4.8335C4.8335 13.8316 6.55831 16.4379 8.39746 18.2697C10.2382 20.103 12.282 21.2527 13.1456 21.6951L14.0576 19.9151ZM13.9428 19.9151C13.9551 19.9088 13.9753 19.9025 14.0002 19.9025C14.0251 19.9025 14.0452 19.9088 14.0576 19.9151L13.1456 21.6951C13.6854 21.9717 14.3149 21.9717 14.8547 21.6951L13.9428 19.9151ZM16.5002 10.4999C16.5002 11.8806 15.3809 12.9999 14.0002 12.9999V14.9999C16.4854 14.9999 18.5002 12.9852 18.5002 10.4999H16.5002ZM14.0002 7.99992C15.3809 7.99992 16.5002 9.11921 16.5002 10.4999H18.5002C18.5002 8.01464 16.4854 5.99992 14.0002 5.99992V7.99992ZM11.5002 10.4999C11.5002 9.11921 12.6195 7.99992 14.0002 7.99992V5.99992C11.5149 5.99992 9.50016 8.01464 9.50016 10.4999H11.5002ZM14.0002 12.9999C12.6195 12.9999 11.5002 11.8806 11.5002 10.4999H9.50016C9.50016 12.9852 11.5149 14.9999 14.0002 14.9999V12.9999Z" fill="#858586"/>
<path d="M23.0933 20.4167C24.0148 20.9488 24.5 21.5524 24.5 22.1667C24.5 22.7811 24.0148 23.3847 23.0933 23.9167C22.1717 24.4488 20.8462 24.8906 19.25 25.1978C17.6538 25.505 15.8431 25.6667 14 25.6667C12.1569 25.6667 10.3462 25.505 8.75 25.1978C7.1538 24.8906 5.8283 24.4488 4.90673 23.9167C3.98517 23.3847 3.5 22.7811 3.5 22.1667C3.5 21.5524 3.98517 20.9488 4.90673 20.4167" stroke="#858586" stroke-width="2" stroke-linecap="round"/>
</svg>
