<svg width="28" height="28" viewBox="0 0 28 28" fill="none" xmlns="http://www.w3.org/2000/svg">
<path d="M16.9168 24.5V18.5C16.9168 17.9477 16.4691 17.5 15.9168 17.5H12.0835C11.5312 17.5 11.0835 17.9477 11.0835 18.5V24.5" stroke="#FFA726" stroke-width="2" stroke-linecap="round" stroke-linejoin="round"/>
<path d="M5.8335 12.8335V20.5002C5.8335 22.3858 5.8335 23.3286 6.41928 23.9144C7.00507 24.5002 7.94788 24.5002 9.83349 24.5002H18.1668C20.0524 24.5002 20.9953 24.5002 21.581 23.9144C22.1668 23.3286 22.1668 22.3858 22.1668 20.5002V12.8335" stroke="#FFA726" stroke-width="2"/>
<path d="M5.4546 5.01493C5.63649 4.28737 5.72744 3.92359 5.9987 3.71179C6.26996 3.5 6.64493 3.5 7.39489 3.5H20.6051C21.3551 3.5 21.73 3.5 22.0013 3.71179C22.2726 3.92359 22.3635 4.28737 22.5454 5.01493L24.0127 10.8843C24.1732 11.526 24.2534 11.8469 24.1827 12.1013C24.1118 12.3561 23.9429 12.5725 23.7128 12.703C23.4832 12.8333 23.1471 12.8333 22.4748 12.8333V12.8333C21.584 12.8333 21.1386 12.8333 20.778 12.6876C20.3807 12.527 20.0455 12.243 19.8218 11.8775C19.6187 11.5458 19.5467 11.1134 19.4026 10.2487V10.2487C19.3622 10.0064 19.342 9.8853 19.3095 9.86124C19.2742 9.83507 19.2258 9.83507 19.1905 9.86124C19.158 9.8853 19.1378 10.0064 19.0974 10.2487L19.0023 10.8194C18.9484 11.1428 18.9215 11.3045 18.8775 11.4421C18.6447 12.1707 18.0167 12.7027 17.2596 12.8126C17.1168 12.8333 16.9529 12.8333 16.625 12.8333V12.8333C16.2971 12.8333 16.1332 12.8333 15.9904 12.8126C15.2333 12.7027 14.6053 12.1707 14.3725 11.4421C14.3285 11.3045 14.3016 11.1428 14.2477 10.8194L14.1526 10.2487C14.1122 10.0064 14.092 9.8853 14.0595 9.86124C14.0242 9.83507 13.9758 9.83507 13.9405 9.86124C13.908 9.8853 13.8878 10.0064 13.8474 10.2487L13.7523 10.8194C13.6984 11.1428 13.6715 11.3045 13.6275 11.4421C13.3947 12.1707 12.7667 12.7027 12.0096 12.8126C11.8668 12.8333 11.7029 12.8333 11.375 12.8333V12.8333C11.0471 12.8333 10.8832 12.8333 10.7404 12.8126C9.98334 12.7027 9.35529 12.1707 9.12247 11.4421C9.07853 11.3045 9.05158 11.1428 8.99769 10.8194L8.90255 10.2487C8.86218 10.0064 8.84199 9.8853 8.8095 9.86124C8.77415 9.83507 8.72585 9.83507 8.69049 9.86124C8.65801 9.8853 8.63782 10.0064 8.59744 10.2487V10.2487C8.45332 11.1134 8.38126 11.5458 8.17818 11.8775C7.95446 12.243 7.61926 12.527 7.22197 12.6876C6.86137 12.8333 6.41599 12.8333 5.52523 12.8333V12.8333C4.85292 12.8333 4.51677 12.8333 4.28717 12.703C4.05714 12.5725 3.88821 12.3561 3.81734 12.1013C3.7466 11.8469 3.82682 11.526 3.98726 10.8843L5.4546 5.01493Z" stroke="#FFA726" stroke-width="2"/>
</svg>
